<svg id="Layer_1" data-name="Layer 1" xmlns="http://www.w3.org/2000/svg" viewBox="0 0 23 20"><defs><style>.cls-1{fill:#e1a817;}.cls-1,.cls-2{fill-rule:evenodd;}.cls-2{fill:#ad810f;}</style></defs>
  <path class="cls-1" d="M22,0C19.15,10.71,10.51,18.76,0,19.87V20H22Z"/><path class="cls-2" d="M22.5,0a.5.5,0,0,0-.5.5v19a.5.5,0,0,0,1,0V.5A.5.5,0,0,0,22.5,0ZM19,3.5a.5.5,0,0,1,1,0v16a.5.5,0,0,1-1,0ZM16.5,7a.5.5,0,0,0-.5.5v12a.5.5,0,0,0,1,0V7.5A.5.5,0,0,0,16.5,7ZM13,11.5a.5.5,0,0,1,1,0v8a.5.5,0,0,1-1,0ZM10.5,14a.5.5,0,0,0-.5.5v5a.5.5,0,0,0,1,0v-5A.5.5,0,0,0,10.5,14ZM7,16.5a.5.5,0,0,1,1,0v3a.5.5,0,0,1-1,0ZM4.5,18a.5.5,0,0,0-.5.5v1a.5.5,0,0,0,1,0v-1A.5.5,0,0,0,4.5,18Zm-3,1a.5.5,0,1,0,.5.5A.5.5,0,0,0,1.5,19Z"/>
</svg>