<svg width="225" height="18" viewBox="0 0 225 18" fill="none" xmlns="http://www.w3.org/2000/svg">
  <path fill-rule="evenodd" clip-rule="evenodd" d="M27.6462 2.05761L31.8031 4.26349C31.9589 4.34626 32.0392 4.55019 31.9811 4.71678L27.4682 17.6982C27.4104 17.8648 27.2183 18 27.0421 18H4.9706C4.79402 18 4.60228 17.8648 4.54377 17.6982L0.0189422 4.71678C-0.039213 4.55019 0.041147 4.34626 0.196932 4.26349L4.33512 2.06958C4.49126 1.98681 4.70167 2.03718 4.80353 2.18123L8.60688 7.56545C8.7091 7.70951 8.93291 7.79439 9.10455 7.75459L11.4561 7.20585C11.6278 7.16569 11.7889 6.98994 11.8142 6.81525L12.7507 0.31734C12.7761 0.142645 12.941 0 13.1176 0H18.8947C19.0713 0 19.2363 0.142645 19.2609 0.31734L20.1741 6.80961C20.1988 6.98431 20.3595 7.15971 20.5319 7.19951L22.8764 7.74473C23.0484 7.78488 23.2726 7.69964 23.3741 7.55524L27.1778 2.16926C27.2796 2.0252 27.4908 1.97484 27.6462 2.05761ZM183.64 11.3161C183.64 7.50452 186.351 4.63226 190.23 4.63226C194.108 4.63226 196.819 7.50452 196.819 11.3161C196.819 15.1277 194.108 18 190.23 18C186.351 18 183.64 15.1277 183.64 11.3161ZM56.7598 15.7058V17.729H47.8001V4.90323H56.7598V6.92645H49.9727V10.2142H56.4545V12.2374H49.9727V15.7058H56.7598ZM82.9295 15.7058V17.729H74.8496V4.90323H77.0222V15.7058H82.9295ZM109.225 17.729V15.7058H102.438V12.2374H108.92V10.2142H102.438V6.92645H109.225V4.90323H100.265V17.729H109.225ZM128.105 17.729H125.807L130.744 4.90323H133.06L138.016 17.729H135.646L134.73 15.2542H129.02L128.105 17.729ZM131.857 7.6129H131.893L134.012 13.2671H129.739L131.857 7.6129ZM157.291 8.51613V17.729H155.154V4.90323H157.363L163.557 14.1342V4.90323H165.694V17.729H163.468L157.291 8.51613ZM190.23 15.9045C187.734 15.9045 185.938 14.08 185.938 11.3161C185.938 8.55226 187.734 6.72774 190.23 6.72774C192.726 6.72774 194.521 8.55226 194.521 11.3161C194.521 14.08 192.726 15.9045 190.23 15.9045ZM222.45 17.729H225L222.073 12.4C223.761 11.8581 224.569 10.4852 224.569 8.7871C224.569 6.5471 223.187 4.90323 220.368 4.90323H214.766V17.729H216.938V12.671H219.865L222.45 17.729ZM222.379 8.7871C222.379 7.68516 221.732 6.92645 220.386 6.92645H216.938V10.6477H220.386C221.732 10.6477 222.379 9.88903 222.379 8.7871Z" fill="white"/>
</svg>
