<svg id="Layer_1" data-name="Layer 1" xmlns="http://www.w3.org/2000/svg" viewBox="0 0 157 13"><defs><style>.cls-1{fill:#171a25;fill-rule:evenodd;}</style></defs>
  <path class="cls-1" d="M19.29,1.49l2.9,1.59a.29.29,0,0,1,.13.33l-3.15,9.37a.35.35,0,0,1-.3.22H3.47a.35.35,0,0,1-.3-.22L0,3.41a.29.29,0,0,1,.13-.33L3,1.49a.26.26,0,0,1,.33.09L6,5.46a.33.33,0,0,0,.34.14L8,5.2a.33.33,0,0,0,.25-.28L8.9.23A.26.26,0,0,1,9.15,0h4a.27.27,0,0,1,.26.23l.64,4.69a.36.36,0,0,0,.25.28L16,5.59a.36.36,0,0,0,.35-.13L19,1.57A.26.26,0,0,1,19.29,1.49ZM128.14,8.17a4.61,4.61,0,1,1,9.2,0,4.61,4.61,0,1,1-9.2,0ZM39.61,11.34V12.8H33.35V3.54h6.26V5H34.87V7.38h4.52V8.84H34.87v2.5Zm18.26,0V12.8H52.23V3.54h1.51v7.8ZM76.21,12.8V11.34H71.48V8.84H76V7.38H71.48V5h4.73V3.54H70V12.8Zm13.18,0h-1.6l3.44-9.26h1.62L96.3,12.8H94.65L94,11H90ZM92,5.5h0l1.48,4.08h-3Zm17.74.65V12.8h-1.49V3.54h1.54l4.33,6.67V3.54h1.49V12.8h-1.56Zm23,5.34a3,3,0,0,1-3-3.32,3,3,0,1,1,6,0A3,3,0,0,1,132.74,11.49Zm22.48,1.31H157L155,9a2.55,2.55,0,0,0,1.74-2.61,2.64,2.64,0,0,0-2.93-2.81h-3.91V12.8h1.52V9.15h2Zm-.05-6.45A1.25,1.25,0,0,0,153.78,5h-2.4V7.69h2.4A1.24,1.24,0,0,0,155.17,6.35Z"/>
</svg>