<svg id="Layer_1" data-name="Layer 1" xmlns="http://www.w3.org/2000/svg" viewBox="0 0 23 23"><defs><style>.cls-1{fill:none;}.cls-1,.cls-3{stroke:#ad810f;}.cls-2{fill:#e1a817;}.cls-3{fill:#fbc843;fill-rule:evenodd;}.cls-4{fill:#ad810f;}</style></defs><circle class="cls-1" cx="11.5" cy="11.5" r="11"/><ellipse class="cls-2" cx="11.5" cy="8.5" rx="9.5" ry="6.5"/>
  <path class="cls-3" d="M14.46,11.15l-3,5.46a1.56,1.56,0,1,1-2.21-2.06Z"/><path class="cls-4" d="M11.5,3h0a.5.5,0,0,1,.5.5v2a.5.5,0,0,1-.5.5h0a.5.5,0,0,1-.5-.5v-2A.5.5,0,0,1,11.5,3Z"/><rect class="cls-4" x="13.5" y="4.94" width="3" height="1" rx="0.5" transform="translate(2.79 15.71) rotate(-60)"/><path class="cls-4" d="M7.25,4.14h0a.49.49,0,0,1,.68.18l1,1.73a.51.51,0,0,1-.18.69h0a.51.51,0,0,1-.68-.19l-1-1.73A.49.49,0,0,1,7.25,4.14Z"/><path class="cls-4" d="M4.14,7.25h0a.49.49,0,0,1,.68-.18l1.73,1a.51.51,0,0,1,.19.68h0a.51.51,0,0,1-.69.18l-1.73-1A.49.49,0,0,1,4.14,7.25Z"/><path class="cls-4" d="M18.86,7.25h0a.49.49,0,0,1-.18.68L17,8.93a.51.51,0,0,1-.69-.18h0a.51.51,0,0,1,.19-.68l1.73-1A.49.49,0,0,1,18.86,7.25Z"/><path class="cls-4" d="M20,11.5h0a.5.5,0,0,1-.5.5h-2a.5.5,0,0,1-.5-.5h0a.5.5,0,0,1,.5-.5h2A.5.5,0,0,1,20,11.5Z"/><path class="cls-4" d="M6,11.5H6a.5.5,0,0,1-.5.5h-2a.5.5,0,0,1-.5-.5H3a.5.5,0,0,1,.5-.5h2A.5.5,0,0,1,6,11.5Z"/>
</svg>