<svg id="Layer_1" data-name="Layer 1" xmlns="http://www.w3.org/2000/svg" viewBox="0 0 22.29 22"><defs><style>.cls-1,.cls-5{fill:none;}.cls-1,.cls-3,.cls-5{stroke:#ad810f;}.cls-2{fill:#e1a817;}.cls-3{fill:#f7bd28;}.cls-4{fill:#ad810f;}.cls-5{stroke-linecap:round;stroke-linejoin:round;}</style></defs>
  <path class="cls-1" d="M5.79,4A3.5,3.5,0,0,1,9.29.5h6A3.5,3.5,0,0,1,18.79,4V21.5h-13Z"/><path class="cls-2" d="M9.29,5a3,3,0,0,1,3-3h3a3,3,0,0,1,3,3V21h-9Z"/><rect class="cls-3" x="8.29" y="3" width="8" height="4" rx="1"/><path class="cls-4" d="M2.79,21h19a.5.5,0,0,1,.5.5h0a.5.5,0,0,1-.5.5h-19a.5.5,0,0,1-.5-.5h0A.5.5,0,0,1,2.79,21Z"/><path class="cls-5" d="M2.71,5.56s-3.77,3.29-1.46,6.85a6.16,6.16,0,0,1,.12,6.7"/>
</svg>