<?xml version="1.0" encoding="utf-8"?>
<!-- Generator: Adobe Illustrator 26.0.2, SVG Export Plug-In . SVG Version: 6.00 Build 0)  -->
<svg version="1.1" id="Layer_1" xmlns="http://www.w3.org/2000/svg" xmlns:xlink="http://www.w3.org/1999/xlink" x="0px" y="0px"
	 viewBox="0 0 150 150" style="enable-background:new 0 0 150 150;" xml:space="preserve">
<style type="text/css">
	.st0{fill:none;stroke:#7B87AF;stroke-width:2;}
	.st1{fill-rule:evenodd;clip-rule:evenodd;fill:#7B87AF;}
	.st2{fill:#7B87AF;}
</style>
<g>
	<circle class="st0" cx="75" cy="75" r="61"/>
	<path class="st1" d="M101.7,67.1l-6.9-3.7c-0.3-0.1-0.6-0.1-0.8,0.2l-6.3,9c-0.2,0.2-0.5,0.4-0.8,0.3L83,72
		c-0.3-0.1-0.6-0.4-0.6-0.6l-1.5-10.8c0-0.3-0.3-0.5-0.6-0.5h-9.6c-0.3,0-0.6,0.2-0.6,0.5l-1.6,10.8c0,0.3-0.3,0.6-0.6,0.7l-3.9,0.9
		c-0.3,0.1-0.7-0.1-0.8-0.3l-6.3-9c-0.2-0.2-0.5-0.3-0.8-0.2l-6.9,3.7c-0.3,0.1-0.4,0.5-0.3,0.8l7.5,21.6c0.1,0.3,0.4,0.5,0.7,0.5
		h36.6c0.3,0,0.6-0.2,0.7-0.5l7.5-21.6C102.1,67.6,101.9,67.2,101.7,67.1z"/>
</g>
<circle class="st2" cx="14" cy="75" r="5"/>
</svg>
